<svg xmlns="http://www.w3.org/2000/svg" viewBox="0 0 378.76 70"><title>bg-descubre-mas</title><g id="Capa_2" data-name="Capa 2"><g id="Capa_1-2" data-name="Capa 1"><path d="M361.25,1.41a3.68,3.68,0,0,1,3.35,2.16l11.54,25.78a13.82,13.82,0,0,1,0,11.3L364.6,66.43a3.68,3.68,0,0,1-3.35,2.16H5.07a3.66,3.66,0,0,1-3.66-3.66V5.07A3.66,3.66,0,0,1,5.07,1.41H361.25m0-1.41H5.07A5.07,5.07,0,0,0,0,5.07V64.93A5.07,5.07,0,0,0,5.07,70H361.25a5.07,5.07,0,0,0,4.63-3l11.55-25.78a15.24,15.24,0,0,0,0-12.44L365.88,3a5.07,5.07,0,0,0-4.63-3Z"/></g></g></svg>