<?xml version="1.0" encoding="utf-8"?>
<!-- Generator: Adobe Illustrator 23.0.1, SVG Export Plug-In . SVG Version: 6.00 Build 0)  -->
<svg version="1.1" id="Capa_1" xmlns="http://www.w3.org/2000/svg" xmlns:xlink="http://www.w3.org/1999/xlink" x="0px" y="0px"
	 viewBox="0 0 356.2 28.9" style="enable-background:new 0 0 356.2 28.9;" xml:space="preserve">
<style type="text/css">
	.st0{fill:#828282;}
	.st1{clip-path:url(#SVGID_2_);}
	.st2{fill:none;stroke:#AFAFAF;stroke-miterlimit:10;}
</style>
<title>bg-input</title>
<g>
	<g id="Capa_1-2">
		<path class="st0" d="M3,0.3h350.2c1.7,0,3,1.3,3,3v22.5c0,1.7-1.3,3-3,3H3c-1.7,0-3-1.3-3-3V3.3C0,1.7,1.3,0.3,3,0.3z"/>
		<g>
			<defs>
				<path id="SVGID_1_" d="M3,0.3h350.2c1.7,0,3,1.3,3,3v22.5c0,1.7-1.3,3-3,3H3c-1.7,0-3-1.3-3-3V3.3C0,1.7,1.3,0.3,3,0.3z"/>
			</defs>
			<clipPath id="SVGID_2_">
				<use xlink:href="#SVGID_1_"  style="overflow:visible;"/>
			</clipPath>
			<g class="st1">
				<line class="st2" x1="-37.5" y1="31.8" x2="-3" y2="-2.6"/>
				<line class="st2" x1="-33.6" y1="31.8" x2="0.9" y2="-2.6"/>
				<line class="st2" x1="-29.6" y1="31.8" x2="4.9" y2="-2.6"/>
				<line class="st2" x1="-25.7" y1="31.8" x2="8.8" y2="-2.6"/>
				<line class="st2" x1="-21.8" y1="31.8" x2="12.7" y2="-2.6"/>
				<line class="st2" x1="-17.9" y1="31.8" x2="16.6" y2="-2.6"/>
				<line class="st2" x1="-13.9" y1="31.8" x2="20.6" y2="-2.6"/>
				<line class="st2" x1="-10" y1="31.8" x2="24.5" y2="-2.6"/>
				<line class="st2" x1="-6.1" y1="31.8" x2="28.4" y2="-2.6"/>
				<line class="st2" x1="-2.2" y1="31.8" x2="32.3" y2="-2.6"/>
				<line class="st2" x1="1.8" y1="31.8" x2="36.3" y2="-2.6"/>
				<line class="st2" x1="5.7" y1="31.8" x2="40.2" y2="-2.6"/>
				<line class="st2" x1="9.6" y1="31.8" x2="44.1" y2="-2.6"/>
				<line class="st2" x1="13.5" y1="31.8" x2="48" y2="-2.6"/>
				<line class="st2" x1="17.5" y1="31.8" x2="52" y2="-2.6"/>
				<line class="st2" x1="21.4" y1="31.8" x2="55.9" y2="-2.6"/>
				<line class="st2" x1="25.3" y1="31.8" x2="59.8" y2="-2.6"/>
				<line class="st2" x1="29.2" y1="31.8" x2="63.7" y2="-2.6"/>
				<line class="st2" x1="33.2" y1="31.8" x2="67.7" y2="-2.6"/>
				<line class="st2" x1="37.1" y1="31.8" x2="71.6" y2="-2.6"/>
				<line class="st2" x1="41" y1="31.8" x2="75.5" y2="-2.6"/>
				<line class="st2" x1="44.9" y1="31.8" x2="79.4" y2="-2.6"/>
				<line class="st2" x1="48.9" y1="31.8" x2="83.4" y2="-2.6"/>
				<line class="st2" x1="52.8" y1="31.8" x2="87.3" y2="-2.6"/>
				<line class="st2" x1="56.7" y1="31.8" x2="91.2" y2="-2.6"/>
				<line class="st2" x1="60.7" y1="31.8" x2="95.2" y2="-2.6"/>
				<line class="st2" x1="64.6" y1="31.8" x2="99.1" y2="-2.6"/>
				<line class="st2" x1="68.5" y1="31.8" x2="103" y2="-2.6"/>
				<line class="st2" x1="72.4" y1="31.8" x2="106.9" y2="-2.6"/>
				<line class="st2" x1="76.3" y1="31.8" x2="110.8" y2="-2.6"/>
				<line class="st2" x1="80.3" y1="31.8" x2="114.8" y2="-2.6"/>
				<line class="st2" x1="84.2" y1="31.8" x2="118.7" y2="-2.6"/>
				<line class="st2" x1="88.1" y1="31.8" x2="122.6" y2="-2.6"/>
				<line class="st2" x1="92" y1="31.8" x2="126.5" y2="-2.6"/>
				<line class="st2" x1="96" y1="31.8" x2="130.5" y2="-2.6"/>
				<line class="st2" x1="99.9" y1="31.8" x2="134.4" y2="-2.6"/>
				<line class="st2" x1="103.8" y1="31.8" x2="138.3" y2="-2.6"/>
				<line class="st2" x1="107.8" y1="31.8" x2="142.3" y2="-2.6"/>
				<line class="st2" x1="111.7" y1="31.8" x2="146.2" y2="-2.6"/>
				<line class="st2" x1="115.6" y1="31.8" x2="150.1" y2="-2.6"/>
				<line class="st2" x1="119.5" y1="31.8" x2="154" y2="-2.6"/>
				<line class="st2" x1="123.5" y1="31.8" x2="158" y2="-2.6"/>
				<line class="st2" x1="127.4" y1="31.8" x2="161.9" y2="-2.6"/>
				<line class="st2" x1="131.3" y1="31.8" x2="165.8" y2="-2.6"/>
				<line class="st2" x1="135.2" y1="31.8" x2="169.7" y2="-2.6"/>
				<line class="st2" x1="139.2" y1="31.8" x2="173.7" y2="-2.6"/>
				<line class="st2" x1="143.1" y1="31.8" x2="177.6" y2="-2.6"/>
				<line class="st2" x1="147" y1="31.8" x2="181.5" y2="-2.6"/>
				<line class="st2" x1="150.9" y1="31.8" x2="185.4" y2="-2.6"/>
				<line class="st2" x1="154.9" y1="31.8" x2="189.4" y2="-2.6"/>
				<line class="st2" x1="158.8" y1="31.8" x2="193.3" y2="-2.6"/>
				<line class="st2" x1="162.7" y1="31.8" x2="197.2" y2="-2.6"/>
				<line class="st2" x1="166.6" y1="31.8" x2="201.1" y2="-2.6"/>
				<line class="st2" x1="170.6" y1="31.8" x2="205.1" y2="-2.6"/>
				<line class="st2" x1="174.5" y1="31.8" x2="209" y2="-2.6"/>
				<line class="st2" x1="178.4" y1="31.8" x2="212.9" y2="-2.6"/>
				<line class="st2" x1="182.4" y1="31.8" x2="216.9" y2="-2.6"/>
				<line class="st2" x1="186.3" y1="31.8" x2="220.8" y2="-2.6"/>
				<line class="st2" x1="190.2" y1="31.8" x2="224.7" y2="-2.6"/>
				<line class="st2" x1="194.1" y1="31.8" x2="228.6" y2="-2.6"/>
				<line class="st2" x1="198" y1="31.8" x2="232.5" y2="-2.6"/>
				<line class="st2" x1="202" y1="31.8" x2="236.5" y2="-2.6"/>
				<line class="st2" x1="205.9" y1="31.8" x2="240.4" y2="-2.6"/>
				<line class="st2" x1="209.8" y1="31.8" x2="244.3" y2="-2.6"/>
				<line class="st2" x1="213.8" y1="31.8" x2="248.2" y2="-2.6"/>
				<line class="st2" x1="217.7" y1="31.8" x2="252.2" y2="-2.6"/>
				<line class="st2" x1="221.6" y1="31.8" x2="256.1" y2="-2.6"/>
				<line class="st2" x1="225.5" y1="31.8" x2="260" y2="-2.6"/>
				<line class="st2" x1="229.4" y1="31.8" x2="263.9" y2="-2.6"/>
				<line class="st2" x1="233.4" y1="31.8" x2="267.9" y2="-2.6"/>
				<line class="st2" x1="237.3" y1="31.8" x2="271.8" y2="-2.6"/>
				<line class="st2" x1="241.2" y1="31.8" x2="275.7" y2="-2.6"/>
				<line class="st2" x1="245.2" y1="31.8" x2="279.7" y2="-2.6"/>
				<line class="st2" x1="249.1" y1="31.8" x2="283.6" y2="-2.6"/>
				<line class="st2" x1="253" y1="31.8" x2="287.5" y2="-2.6"/>
				<line class="st2" x1="256.9" y1="31.8" x2="291.4" y2="-2.6"/>
				<line class="st2" x1="260.9" y1="31.8" x2="295.4" y2="-2.6"/>
				<line class="st2" x1="264.8" y1="31.8" x2="299.3" y2="-2.6"/>
				<line class="st2" x1="268.7" y1="31.8" x2="303.2" y2="-2.6"/>
				<line class="st2" x1="272.6" y1="31.8" x2="307.1" y2="-2.6"/>
				<line class="st2" x1="276.6" y1="31.8" x2="311.1" y2="-2.6"/>
				<line class="st2" x1="280.5" y1="31.8" x2="315" y2="-2.6"/>
				<line class="st2" x1="284.4" y1="31.8" x2="318.9" y2="-2.6"/>
				<line class="st2" x1="288.3" y1="31.8" x2="322.8" y2="-2.6"/>
				<line class="st2" x1="292.3" y1="31.8" x2="326.8" y2="-2.6"/>
				<line class="st2" x1="296.2" y1="31.8" x2="330.7" y2="-2.6"/>
				<line class="st2" x1="300.1" y1="31.8" x2="334.6" y2="-2.6"/>
				<line class="st2" x1="304" y1="31.8" x2="338.5" y2="-2.6"/>
				<line class="st2" x1="308" y1="31.8" x2="342.5" y2="-2.6"/>
				<line class="st2" x1="311.9" y1="31.8" x2="346.4" y2="-2.6"/>
				<line class="st2" x1="315.8" y1="31.8" x2="350.3" y2="-2.6"/>
				<line class="st2" x1="319.8" y1="31.8" x2="354.2" y2="-2.6"/>
				<line class="st2" x1="323.7" y1="31.8" x2="358.2" y2="-2.6"/>
				<line class="st2" x1="327.6" y1="31.8" x2="362.1" y2="-2.6"/>
				<line class="st2" x1="331.5" y1="31.8" x2="366" y2="-2.6"/>
				<line class="st2" x1="335.4" y1="31.8" x2="369.9" y2="-2.6"/>
				<line class="st2" x1="339.4" y1="31.8" x2="373.9" y2="-2.6"/>
				<line class="st2" x1="343.3" y1="31.8" x2="377.8" y2="-2.6"/>
				<line class="st2" x1="347.2" y1="31.8" x2="381.7" y2="-2.6"/>
				<line class="st2" x1="351.1" y1="31.8" x2="385.6" y2="-2.6"/>
				<line class="st2" x1="355.1" y1="31.8" x2="389.6" y2="-2.6"/>
				<line class="st2" x1="359" y1="31.8" x2="393.5" y2="-2.6"/>
			</g>
		</g>
	</g>
</g>
</svg>
