<?xml version="1.0" encoding="utf-8"?>
<!-- Generator: Adobe Illustrator 23.0.1, SVG Export Plug-In . SVG Version: 6.00 Build 0)  -->
<svg version="1.1" id="Capa_1" xmlns="http://www.w3.org/2000/svg" xmlns:xlink="http://www.w3.org/1999/xlink" x="0px" y="0px"
	 viewBox="0 0 1924.3 1075.1" style="enable-background:new 0 0 1924.3 1075.1;" xml:space="preserve">
<style type="text/css">
	.st0{clip-path:url(#SVGID_2_);}
	.st1{fill:none;stroke:#1A1A1A;stroke-width:2;stroke-miterlimit:10;}
</style>
<title>bg</title>
<g>
	<g id="Capa_1-2">
		<g>
			<defs>
				<rect id="SVGID_1_" y="-5.7" width="1936.7" height="1080"/>
			</defs>
			<clipPath id="SVGID_2_">
				<use xlink:href="#SVGID_1_"  style="overflow:visible;"/>
			</clipPath>
			<g class="st0">
				<line class="st1" x1="-12.2" y1="3067.5" x2="1948.9" y2="1106.5"/>
				<line class="st1" x1="-12.2" y1="3056" x2="1948.9" y2="1095"/>
				<line class="st1" x1="-12.2" y1="3044.5" x2="1948.9" y2="1083.5"/>
				<line class="st1" x1="-12.2" y1="3033" x2="1948.9" y2="1071.9"/>
				<line class="st1" x1="-12.2" y1="3021.4" x2="1948.9" y2="1060.4"/>
				<line class="st1" x1="-12.2" y1="3009.9" x2="1948.9" y2="1048.9"/>
				<line class="st1" x1="-12.2" y1="2998.4" x2="1948.9" y2="1037.4"/>
				<line class="st1" x1="-12.2" y1="2986.9" x2="1948.9" y2="1025.8"/>
				<line class="st1" x1="-12.2" y1="2975.3" x2="1948.9" y2="1014.3"/>
				<line class="st1" x1="-12.2" y1="2963.8" x2="1948.9" y2="1002.8"/>
				<line class="st1" x1="-12.2" y1="2952.3" x2="1948.9" y2="991.3"/>
				<line class="st1" x1="-12.2" y1="2940.8" x2="1948.9" y2="979.7"/>
				<line class="st1" x1="-12.2" y1="2929.2" x2="1948.9" y2="968.2"/>
				<line class="st1" x1="-12.2" y1="2917.7" x2="1948.9" y2="956.7"/>
				<line class="st1" x1="-12.2" y1="2906.2" x2="1948.9" y2="945.2"/>
				<line class="st1" x1="-12.2" y1="2894.7" x2="1948.9" y2="933.7"/>
				<line class="st1" x1="-12.2" y1="2883.2" x2="1948.9" y2="922.1"/>
				<line class="st1" x1="-12.2" y1="2871.6" x2="1948.9" y2="910.6"/>
				<line class="st1" x1="-12.2" y1="2860.1" x2="1948.9" y2="899.1"/>
				<line class="st1" x1="-12.2" y1="2848.6" x2="1948.9" y2="887.6"/>
				<line class="st1" x1="-12.2" y1="2837.1" x2="1948.9" y2="876"/>
				<line class="st1" x1="-12.2" y1="2825.5" x2="1948.9" y2="864.5"/>
				<line class="st1" x1="-12.2" y1="2814" x2="1948.9" y2="853"/>
				<line class="st1" x1="-12.2" y1="2802.5" x2="1948.9" y2="841.5"/>
				<line class="st1" x1="-12.2" y1="2791" x2="1948.9" y2="829.9"/>
				<line class="st1" x1="-12.2" y1="2779.4" x2="1948.9" y2="818.4"/>
				<line class="st1" x1="-12.2" y1="2767.9" x2="1948.9" y2="806.9"/>
				<line class="st1" x1="-12.2" y1="2756.4" x2="1948.9" y2="795.4"/>
				<line class="st1" x1="-12.2" y1="2744.9" x2="1948.9" y2="783.8"/>
				<line class="st1" x1="-12.2" y1="2733.3" x2="1948.9" y2="772.3"/>
				<line class="st1" x1="-12.2" y1="2721.8" x2="1948.9" y2="760.8"/>
				<line class="st1" x1="-12.2" y1="2710.3" x2="1948.9" y2="749.3"/>
				<line class="st1" x1="-12.2" y1="2698.8" x2="1948.9" y2="737.7"/>
				<line class="st1" x1="-12.2" y1="2687.2" x2="1948.9" y2="726.2"/>
				<line class="st1" x1="-12.2" y1="2675.7" x2="1948.9" y2="714.7"/>
				<line class="st1" x1="-12.2" y1="2664.2" x2="1948.9" y2="703.2"/>
				<line class="st1" x1="-12.2" y1="2652.7" x2="1948.9" y2="691.6"/>
				<line class="st1" x1="-12.2" y1="2641.1" x2="1948.9" y2="680.1"/>
				<line class="st1" x1="-12.2" y1="2629.6" x2="1948.9" y2="668.6"/>
				<line class="st1" x1="-12.2" y1="2618.1" x2="1948.9" y2="657.1"/>
				<line class="st1" x1="-12.2" y1="2606.6" x2="1948.9" y2="645.6"/>
				<line class="st1" x1="-12.2" y1="2595.1" x2="1948.9" y2="634"/>
				<line class="st1" x1="-12.2" y1="2583.5" x2="1948.9" y2="622.5"/>
				<line class="st1" x1="-12.2" y1="2572" x2="1948.9" y2="611"/>
				<line class="st1" x1="-12.2" y1="2560.5" x2="1948.9" y2="599.5"/>
				<line class="st1" x1="-12.2" y1="2549" x2="1948.9" y2="587.9"/>
				<line class="st1" x1="-12.2" y1="2537.4" x2="1948.9" y2="576.4"/>
				<line class="st1" x1="-12.2" y1="2525.9" x2="1948.9" y2="564.9"/>
				<line class="st1" x1="-12.2" y1="2514.4" x2="1948.9" y2="553.4"/>
				<line class="st1" x1="-12.2" y1="2502.9" x2="1948.9" y2="541.8"/>
				<line class="st1" x1="-12.2" y1="2491.3" x2="1948.9" y2="530.3"/>
				<line class="st1" x1="-12.2" y1="2479.8" x2="1948.9" y2="518.8"/>
				<line class="st1" x1="-12.2" y1="2468.3" x2="1948.9" y2="507.3"/>
				<line class="st1" x1="-12.2" y1="2456.8" x2="1948.9" y2="495.7"/>
				<line class="st1" x1="-12.2" y1="2445.2" x2="1948.9" y2="484.2"/>
				<line class="st1" x1="-12.2" y1="2433.7" x2="1948.9" y2="472.7"/>
				<line class="st1" x1="-12.2" y1="2422.2" x2="1948.9" y2="461.2"/>
				<line class="st1" x1="-12.2" y1="2410.7" x2="1948.9" y2="449.6"/>
				<line class="st1" x1="-12.2" y1="2399.1" x2="1948.9" y2="438.1"/>
				<line class="st1" x1="-12.2" y1="2387.6" x2="1948.9" y2="426.6"/>
				<line class="st1" x1="-12.2" y1="2376.1" x2="1948.9" y2="415.1"/>
				<line class="st1" x1="-12.2" y1="2364.6" x2="1948.9" y2="403.5"/>
				<line class="st1" x1="-12.2" y1="2353.1" x2="1948.9" y2="392"/>
				<line class="st1" x1="-12.2" y1="2341.5" x2="1948.9" y2="380.5"/>
				<line class="st1" x1="-12.2" y1="2330" x2="1948.9" y2="369"/>
				<line class="st1" x1="-12.2" y1="2318.5" x2="1948.9" y2="357.5"/>
				<line class="st1" x1="-12.2" y1="2307" x2="1948.9" y2="345.9"/>
				<line class="st1" x1="-12.2" y1="2295.4" x2="1948.9" y2="334.4"/>
				<line class="st1" x1="-12.2" y1="2283.9" x2="1948.9" y2="322.9"/>
				<line class="st1" x1="-12.2" y1="2272.4" x2="1948.9" y2="311.4"/>
				<line class="st1" x1="-12.2" y1="2260.9" x2="1948.9" y2="299.8"/>
				<line class="st1" x1="-12.2" y1="2249.3" x2="1948.9" y2="288.3"/>
				<line class="st1" x1="-12.2" y1="2237.8" x2="1948.9" y2="276.8"/>
				<line class="st1" x1="-12.2" y1="2226.3" x2="1948.9" y2="265.3"/>
				<line class="st1" x1="-12.2" y1="2214.8" x2="1948.9" y2="253.7"/>
				<line class="st1" x1="-12.2" y1="2203.2" x2="1948.9" y2="242.2"/>
				<line class="st1" x1="-12.2" y1="2191.7" x2="1948.9" y2="230.7"/>
				<line class="st1" x1="-12.2" y1="2180.2" x2="1948.9" y2="219.2"/>
				<line class="st1" x1="-12.2" y1="2168.7" x2="1948.9" y2="207.6"/>
				<line class="st1" x1="-12.2" y1="2157.1" x2="1948.9" y2="196.1"/>
				<line class="st1" x1="-12.2" y1="2145.6" x2="1948.9" y2="184.6"/>
				<line class="st1" x1="-12.2" y1="2134.1" x2="1948.9" y2="173.1"/>
				<line class="st1" x1="-12.2" y1="2122.6" x2="1948.9" y2="161.5"/>
				<line class="st1" x1="-12.2" y1="2111" x2="1948.9" y2="150"/>
				<line class="st1" x1="-12.2" y1="2099.5" x2="1948.9" y2="138.5"/>
				<line class="st1" x1="-12.2" y1="2088" x2="1948.9" y2="127"/>
				<line class="st1" x1="-12.2" y1="2076.5" x2="1948.9" y2="115.4"/>
				<line class="st1" x1="-12.2" y1="2065" x2="1948.9" y2="103.9"/>
				<line class="st1" x1="-12.2" y1="2053.4" x2="1948.9" y2="92.4"/>
				<line class="st1" x1="-12.2" y1="2041.9" x2="1948.9" y2="80.9"/>
				<line class="st1" x1="-12.2" y1="2030.4" x2="1948.9" y2="69.4"/>
				<line class="st1" x1="-12.2" y1="2018.9" x2="1948.9" y2="57.8"/>
				<line class="st1" x1="-12.2" y1="2007.3" x2="1948.9" y2="46.3"/>
				<line class="st1" x1="-12.2" y1="1995.8" x2="1948.9" y2="34.8"/>
				<line class="st1" x1="-12.2" y1="1984.3" x2="1948.9" y2="23.3"/>
				<line class="st1" x1="-12.2" y1="1972.8" x2="1948.9" y2="11.7"/>
				<line class="st1" x1="-12.2" y1="1961.2" x2="1948.9" y2="0.2"/>
				<line class="st1" x1="-12.2" y1="1949.7" x2="1948.9" y2="-11.3"/>
				<line class="st1" x1="-12.2" y1="1938.2" x2="1948.9" y2="-22.8"/>
				<line class="st1" x1="-12.2" y1="1926.7" x2="1948.9" y2="-34.4"/>
				<line class="st1" x1="-12.2" y1="1915.1" x2="1948.9" y2="-45.9"/>
				<line class="st1" x1="-12.2" y1="1903.6" x2="1948.9" y2="-57.4"/>
				<line class="st1" x1="-12.2" y1="1892.1" x2="1948.9" y2="-68.9"/>
				<line class="st1" x1="-12.2" y1="1880.6" x2="1948.9" y2="-80.5"/>
				<line class="st1" x1="-12.2" y1="1869" x2="1948.9" y2="-92"/>
				<line class="st1" x1="-12.2" y1="1857.5" x2="1948.9" y2="-103.5"/>
				<line class="st1" x1="-12.2" y1="1846" x2="1948.9" y2="-115"/>
				<line class="st1" x1="-12.2" y1="1834.5" x2="1948.9" y2="-126.6"/>
				<line class="st1" x1="-12.2" y1="1822.9" x2="1948.9" y2="-138.1"/>
				<line class="st1" x1="-12.2" y1="1811.4" x2="1948.9" y2="-149.6"/>
				<line class="st1" x1="-12.2" y1="1799.9" x2="1948.9" y2="-161.1"/>
				<line class="st1" x1="-12.2" y1="1788.4" x2="1948.9" y2="-172.7"/>
				<line class="st1" x1="-12.2" y1="1776.9" x2="1948.9" y2="-184.2"/>
				<line class="st1" x1="-12.2" y1="1765.3" x2="1948.9" y2="-195.7"/>
				<line class="st1" x1="-12.2" y1="1753.8" x2="1948.9" y2="-207.2"/>
				<line class="st1" x1="-12.2" y1="1742.3" x2="1948.9" y2="-218.7"/>
				<line class="st1" x1="-12.2" y1="1730.8" x2="1948.9" y2="-230.3"/>
				<line class="st1" x1="-12.2" y1="1719.2" x2="1948.9" y2="-241.8"/>
				<line class="st1" x1="-12.2" y1="1707.7" x2="1948.9" y2="-253.3"/>
				<line class="st1" x1="-12.2" y1="1696.2" x2="1948.9" y2="-264.8"/>
				<line class="st1" x1="-12.2" y1="1684.7" x2="1948.9" y2="-276.4"/>
				<line class="st1" x1="-12.2" y1="1673.1" x2="1948.9" y2="-287.9"/>
				<line class="st1" x1="-12.2" y1="1661.6" x2="1948.9" y2="-299.4"/>
				<line class="st1" x1="-12.2" y1="1650.1" x2="1948.9" y2="-310.9"/>
				<line class="st1" x1="-12.2" y1="1638.6" x2="1948.9" y2="-322.5"/>
				<line class="st1" x1="-12.2" y1="1627" x2="1948.9" y2="-334"/>
				<line class="st1" x1="-12.2" y1="1615.5" x2="1948.9" y2="-345.5"/>
				<line class="st1" x1="-12.2" y1="1604" x2="1948.9" y2="-357"/>
				<line class="st1" x1="-12.2" y1="1592.5" x2="1948.9" y2="-368.6"/>
				<line class="st1" x1="-12.2" y1="1580.9" x2="1948.9" y2="-380.1"/>
				<line class="st1" x1="-12.2" y1="1569.4" x2="1948.9" y2="-391.6"/>
				<line class="st1" x1="-12.2" y1="1557.9" x2="1948.9" y2="-403.1"/>
				<line class="st1" x1="-12.2" y1="1546.4" x2="1948.9" y2="-414.7"/>
				<line class="st1" x1="-12.2" y1="1534.8" x2="1948.9" y2="-426.2"/>
				<line class="st1" x1="-12.2" y1="1523.3" x2="1948.9" y2="-437.7"/>
				<line class="st1" x1="-12.2" y1="1511.8" x2="1948.9" y2="-449.2"/>
				<line class="st1" x1="-12.2" y1="1500.3" x2="1948.9" y2="-460.8"/>
				<line class="st1" x1="-12.2" y1="1488.8" x2="1948.9" y2="-472.3"/>
				<line class="st1" x1="-12.2" y1="1477.2" x2="1948.9" y2="-483.8"/>
				<line class="st1" x1="-12.2" y1="1465.7" x2="1948.9" y2="-495.3"/>
				<line class="st1" x1="-12.2" y1="1454.2" x2="1948.9" y2="-506.8"/>
				<line class="st1" x1="-12.2" y1="1442.7" x2="1948.9" y2="-518.4"/>
				<line class="st1" x1="-12.2" y1="1431.1" x2="1948.9" y2="-529.9"/>
				<line class="st1" x1="-12.2" y1="1419.6" x2="1948.9" y2="-541.4"/>
				<line class="st1" x1="-12.2" y1="1408.1" x2="1948.9" y2="-552.9"/>
				<line class="st1" x1="-12.2" y1="1396.6" x2="1948.9" y2="-564.5"/>
				<line class="st1" x1="-12.2" y1="1385" x2="1948.9" y2="-576"/>
				<line class="st1" x1="-12.2" y1="1373.5" x2="1948.9" y2="-587.5"/>
				<line class="st1" x1="-12.2" y1="1362" x2="1948.9" y2="-599"/>
				<line class="st1" x1="-12.2" y1="1350.5" x2="1948.9" y2="-610.6"/>
				<line class="st1" x1="-12.2" y1="1338.9" x2="1948.9" y2="-622.1"/>
				<line class="st1" x1="-12.2" y1="1327.4" x2="1948.9" y2="-633.6"/>
				<line class="st1" x1="-12.2" y1="1315.9" x2="1948.9" y2="-645.1"/>
				<line class="st1" x1="-12.2" y1="1304.4" x2="1948.9" y2="-656.7"/>
				<line class="st1" x1="-12.2" y1="1292.8" x2="1948.9" y2="-668.2"/>
				<line class="st1" x1="-12.2" y1="1281.3" x2="1948.9" y2="-679.7"/>
				<line class="st1" x1="-12.2" y1="1269.8" x2="1948.9" y2="-691.2"/>
				<line class="st1" x1="-12.2" y1="1258.3" x2="1948.9" y2="-702.8"/>
				<line class="st1" x1="-12.2" y1="1246.7" x2="1948.9" y2="-714.3"/>
				<line class="st1" x1="-12.2" y1="1235.2" x2="1948.9" y2="-725.8"/>
				<line class="st1" x1="-12.2" y1="1223.7" x2="1948.9" y2="-737.3"/>
				<line class="st1" x1="-12.2" y1="1212.2" x2="1948.9" y2="-748.8"/>
				<line class="st1" x1="-12.2" y1="1200.7" x2="1948.9" y2="-760.4"/>
				<line class="st1" x1="-12.2" y1="1189.1" x2="1948.9" y2="-771.9"/>
				<line class="st1" x1="-12.2" y1="1177.6" x2="1948.9" y2="-783.4"/>
				<line class="st1" x1="-12.2" y1="1166.1" x2="1948.9" y2="-794.9"/>
				<line class="st1" x1="-12.2" y1="1154.6" x2="1948.9" y2="-806.5"/>
				<line class="st1" x1="-12.2" y1="1143" x2="1948.9" y2="-818"/>
				<line class="st1" x1="-12.2" y1="1131.5" x2="1948.9" y2="-829.5"/>
				<line class="st1" x1="-12.2" y1="1120" x2="1948.9" y2="-841"/>
				<line class="st1" x1="-12.2" y1="1108.5" x2="1948.9" y2="-852.6"/>
				<line class="st1" x1="-12.2" y1="1096.9" x2="1948.9" y2="-864.1"/>
				<line class="st1" x1="-12.2" y1="1085.4" x2="1948.9" y2="-875.6"/>
				<line class="st1" x1="-12.2" y1="1073.9" x2="1948.9" y2="-887.1"/>
				<line class="st1" x1="-12.2" y1="1062.4" x2="1948.9" y2="-898.7"/>
				<line class="st1" x1="-12.2" y1="1050.8" x2="1948.9" y2="-910.2"/>
				<line class="st1" x1="-12.2" y1="1039.3" x2="1948.9" y2="-921.7"/>
				<line class="st1" x1="-12.2" y1="1027.8" x2="1948.9" y2="-933.2"/>
				<line class="st1" x1="-12.2" y1="1016.3" x2="1948.9" y2="-944.8"/>
				<line class="st1" x1="-12.2" y1="1004.7" x2="1948.9" y2="-956.3"/>
				<line class="st1" x1="-12.2" y1="993.2" x2="1948.9" y2="-967.8"/>
				<line class="st1" x1="-12.2" y1="981.7" x2="1948.9" y2="-979.3"/>
				<line class="st1" x1="-12.2" y1="970.2" x2="1948.9" y2="-990.9"/>
				<line class="st1" x1="-12.2" y1="958.6" x2="1948.9" y2="-1002.4"/>
				<line class="st1" x1="-12.2" y1="947.1" x2="1948.9" y2="-1013.9"/>
				<line class="st1" x1="-12.2" y1="935.6" x2="1948.9" y2="-1025.4"/>
				<line class="st1" x1="-12.2" y1="924.1" x2="1948.9" y2="-1036.9"/>
				<line class="st1" x1="-12.2" y1="912.6" x2="1948.9" y2="-1048.5"/>
				<line class="st1" x1="-12.2" y1="901" x2="1948.9" y2="-1060"/>
				<line class="st1" x1="-12.2" y1="889.5" x2="1948.9" y2="-1071.5"/>
				<line class="st1" x1="-12.2" y1="878" x2="1948.9" y2="-1083"/>
				<line class="st1" x1="-12.2" y1="866.5" x2="1948.9" y2="-1094.6"/>
				<line class="st1" x1="-12.2" y1="854.9" x2="1948.9" y2="-1106.1"/>
				<line class="st1" x1="-12.2" y1="843.4" x2="1948.9" y2="-1117.6"/>
				<line class="st1" x1="-12.2" y1="831.9" x2="1948.9" y2="-1129.1"/>
				<line class="st1" x1="-12.2" y1="820.4" x2="1948.9" y2="-1140.7"/>
				<line class="st1" x1="-12.2" y1="808.8" x2="1948.9" y2="-1152.2"/>
				<line class="st1" x1="-12.2" y1="797.3" x2="1948.9" y2="-1163.7"/>
				<line class="st1" x1="-12.2" y1="785.8" x2="1948.9" y2="-1175.2"/>
				<line class="st1" x1="-12.2" y1="774.3" x2="1948.9" y2="-1186.8"/>
				<line class="st1" x1="-12.2" y1="762.7" x2="1948.9" y2="-1198.3"/>
				<line class="st1" x1="-12.2" y1="751.2" x2="1948.9" y2="-1209.8"/>
				<line class="st1" x1="-12.2" y1="739.7" x2="1948.9" y2="-1221.3"/>
				<line class="st1" x1="-12.2" y1="728.2" x2="1948.9" y2="-1232.9"/>
				<line class="st1" x1="-12.2" y1="716.6" x2="1948.9" y2="-1244.4"/>
				<line class="st1" x1="-12.2" y1="705.1" x2="1948.9" y2="-1255.9"/>
				<line class="st1" x1="-12.2" y1="693.6" x2="1948.9" y2="-1267.4"/>
				<line class="st1" x1="-12.2" y1="682.1" x2="1948.9" y2="-1279"/>
				<line class="st1" x1="-12.2" y1="670.5" x2="1948.9" y2="-1290.5"/>
				<line class="st1" x1="-12.2" y1="659" x2="1948.9" y2="-1302"/>
				<line class="st1" x1="-12.2" y1="647.5" x2="1948.9" y2="-1313.5"/>
				<line class="st1" x1="-12.2" y1="636" x2="1948.9" y2="-1325"/>
				<line class="st1" x1="-12.2" y1="624.5" x2="1948.9" y2="-1336.6"/>
				<line class="st1" x1="-12.2" y1="612.9" x2="1948.9" y2="-1348.1"/>
				<line class="st1" x1="-12.2" y1="601.4" x2="1948.9" y2="-1359.6"/>
				<line class="st1" x1="-12.2" y1="589.9" x2="1948.9" y2="-1371.1"/>
				<line class="st1" x1="-12.2" y1="578.4" x2="1948.9" y2="-1382.7"/>
				<line class="st1" x1="-12.2" y1="566.8" x2="1948.9" y2="-1394.2"/>
				<line class="st1" x1="-12.2" y1="555.3" x2="1948.9" y2="-1405.7"/>
				<line class="st1" x1="-12.2" y1="543.8" x2="1948.9" y2="-1417.2"/>
				<line class="st1" x1="-12.2" y1="532.3" x2="1948.9" y2="-1428.8"/>
				<line class="st1" x1="-12.2" y1="520.7" x2="1948.9" y2="-1440.3"/>
				<line class="st1" x1="-12.2" y1="509.2" x2="1948.9" y2="-1451.8"/>
				<line class="st1" x1="-12.2" y1="497.7" x2="1948.9" y2="-1463.3"/>
				<line class="st1" x1="-12.2" y1="486.2" x2="1948.9" y2="-1474.9"/>
				<line class="st1" x1="-12.2" y1="474.6" x2="1948.9" y2="-1486.4"/>
				<line class="st1" x1="-12.2" y1="463.1" x2="1948.9" y2="-1497.9"/>
				<line class="st1" x1="-12.2" y1="451.6" x2="1948.9" y2="-1509.4"/>
				<line class="st1" x1="-12.2" y1="440.1" x2="1948.9" y2="-1521"/>
				<line class="st1" x1="-12.2" y1="428.5" x2="1948.9" y2="-1532.5"/>
				<line class="st1" x1="-12.2" y1="417" x2="1948.9" y2="-1544"/>
				<line class="st1" x1="-12.2" y1="405.5" x2="1948.9" y2="-1555.5"/>
				<line class="st1" x1="-12.2" y1="394" x2="1948.9" y2="-1567.1"/>
				<line class="st1" x1="-12.2" y1="382.4" x2="1948.9" y2="-1578.6"/>
				<line class="st1" x1="-12.2" y1="370.9" x2="1948.9" y2="-1590.1"/>
				<line class="st1" x1="-12.2" y1="359.4" x2="1948.9" y2="-1601.6"/>
				<line class="st1" x1="-12.2" y1="347.9" x2="1948.9" y2="-1613.1"/>
				<line class="st1" x1="-12.2" y1="336.4" x2="1948.9" y2="-1624.7"/>
				<line class="st1" x1="-12.2" y1="324.8" x2="1948.9" y2="-1636.2"/>
				<line class="st1" x1="-12.2" y1="313.3" x2="1948.9" y2="-1647.7"/>
				<line class="st1" x1="-12.2" y1="301.8" x2="1948.9" y2="-1659.2"/>
				<line class="st1" x1="-12.2" y1="290.3" x2="1948.9" y2="-1670.8"/>
				<line class="st1" x1="-12.2" y1="278.7" x2="1948.9" y2="-1682.3"/>
				<line class="st1" x1="-12.2" y1="267.2" x2="1948.9" y2="-1693.8"/>
				<line class="st1" x1="-12.2" y1="255.7" x2="1948.9" y2="-1705.3"/>
				<line class="st1" x1="-12.2" y1="244.2" x2="1948.9" y2="-1716.9"/>
				<line class="st1" x1="-12.2" y1="232.6" x2="1948.9" y2="-1728.4"/>
				<line class="st1" x1="-12.2" y1="221.1" x2="1948.9" y2="-1739.9"/>
				<line class="st1" x1="-12.2" y1="209.6" x2="1948.9" y2="-1751.4"/>
				<line class="st1" x1="-12.2" y1="198.1" x2="1948.9" y2="-1763"/>
				<line class="st1" x1="-12.2" y1="186.5" x2="1948.9" y2="-1774.5"/>
				<line class="st1" x1="-12.2" y1="175" x2="1948.9" y2="-1786"/>
				<line class="st1" x1="-12.2" y1="163.5" x2="1948.9" y2="-1797.5"/>
				<line class="st1" x1="-12.2" y1="152" x2="1948.9" y2="-1809.1"/>
				<line class="st1" x1="-12.2" y1="140.4" x2="1948.9" y2="-1820.6"/>
				<line class="st1" x1="-12.2" y1="128.9" x2="1948.9" y2="-1832.1"/>
				<line class="st1" x1="-12.2" y1="117.4" x2="1948.9" y2="-1843.6"/>
				<line class="st1" x1="-12.2" y1="105.9" x2="1948.9" y2="-1855.2"/>
				<line class="st1" x1="-12.2" y1="94.3" x2="1948.9" y2="-1866.7"/>
				<line class="st1" x1="-12.2" y1="82.8" x2="1948.9" y2="-1878.2"/>
				<line class="st1" x1="-12.2" y1="71.3" x2="1948.9" y2="-1889.7"/>
				<line class="st1" x1="-12.2" y1="59.8" x2="1948.9" y2="-1901.2"/>
				<line class="st1" x1="-12.2" y1="48.3" x2="1948.9" y2="-1912.8"/>
				<line class="st1" x1="-12.2" y1="36.7" x2="1948.9" y2="-1924.3"/>
				<line class="st1" x1="-12.2" y1="25.2" x2="1948.9" y2="-1935.8"/>
				<line class="st1" x1="-12.2" y1="13.7" x2="1948.9" y2="-1947.3"/>
				<line class="st1" x1="-12.2" y1="2.2" x2="1948.9" y2="-1958.9"/>
			</g>
		</g>
	</g>
</g>
</svg>
