<svg xmlns="http://www.w3.org/2000/svg" viewBox="0 0 28 28"><defs><style>.cls-1{fill:#666;}</style></defs><title>facebook</title><g id="Capa_2" data-name="Capa 2"><g id="Capa_1-2" data-name="Capa 1"><path class="cls-1" d="M14,0A14,14,0,1,0,28,14,14,14,0,0,0,14,0Zm4.1,8a.22.22,0,0,1-.22.22H16.1a.79.79,0,0,0-.79.79v1.87h2.53a.22.22,0,0,1,.22.24l-.22,2.63a.22.22,0,0,1-.22.2H15.31v8.71a.22.22,0,0,1-.22.23H11.9a.22.22,0,0,1-.22-.23V13.93H10.09a.22.22,0,0,1-.23-.22V11.08a.22.22,0,0,1,.23-.22h1.59V8.33a3.19,3.19,0,0,1,3.19-3.2h3a.22.22,0,0,1,.22.23Z"/></g></g></svg>