<svg xmlns="http://www.w3.org/2000/svg" viewBox="0 0 28 28"><defs><style>.cls-1{fill:#666;}</style></defs><title>instagram</title><g id="Capa_2" data-name="Capa 2"><g id="Capa_1-2" data-name="Capa 1"><path class="cls-1" d="M14.12,11.07A2.93,2.93,0,1,0,17.05,14,2.94,2.94,0,0,0,14.12,11.07Z"/><path class="cls-1" d="M17.75,6.47H10.34A3.84,3.84,0,0,0,6.51,10.3v7.4a3.84,3.84,0,0,0,3.83,3.83h7.41a3.84,3.84,0,0,0,3.83-3.83V10.3A3.84,3.84,0,0,0,17.75,6.47Zm-3.63,12.1A4.57,4.57,0,1,1,18.69,14,4.58,4.58,0,0,1,14.12,18.57ZM19,10.21A1.09,1.09,0,1,1,19,8a1.09,1.09,0,0,1,0,2.17Z"/><path class="cls-1" d="M14,0A14,14,0,1,0,28,14,14,14,0,0,0,14,0Zm9.32,17.7a5.58,5.58,0,0,1-5.57,5.58H10.34A5.58,5.58,0,0,1,4.77,17.7V10.3a5.58,5.58,0,0,1,5.57-5.58h7.41a5.58,5.58,0,0,1,5.57,5.58Z"/></g></g></svg>