<svg xmlns="http://www.w3.org/2000/svg" viewBox="0 0 217.5 32.27"><title>rentimaq-black</title><g id="Capa_2" data-name="Capa 2"><g id="Capa_1-2" data-name="Capa 1"><path d="M119.62,0V29.59H108.75V3a3,3,0,0,1,3-3Z"/><path d="M106,21.52h-4.75V9.41H106V0H84.28V9.41H89v11.3q0,4.68,2.1,6.78c1.4,1.4,3.7,2.1,6.92,2.1a52.8,52.8,0,0,0,5.47-.32A19.12,19.12,0,0,0,106,28.8Z"/><path d="M26.2,16.21a11.49,11.49,0,0,0,1-5.06c0-4.06-1-6.93-3.11-8.61S18.43,0,13.35,0H0V26.54a3,3,0,0,0,3.05,3.05h9.43V21.23h.77l3.26,8.36H27.19V27.33l-4.05-7.94A7.22,7.22,0,0,0,26.2,16.21ZM15.59,12.75H12.48v-1.3h3.11a.65.65,0,1,1,0,1.3Z"/><path d="M41.43,20.24a.65.65,0,0,1,0-1.3h7.51v-8.3H41.43a.66.66,0,0,1,0-1.31H51.66V0H29.91V29.59H51.66V20.24Z"/><path d="M70.69,0V10.44l-5.35-9A3,3,0,0,0,62.73,0H54.38V29.59H65.25V19.15l5.35,9a3,3,0,0,0,2.61,1.49h8.35V0Z"/><path d="M146,0a3,3,0,0,0-2.6,1.47l-4.08,6.76a.76.76,0,0,1-1.3,0l-4.09-6.76A3,3,0,0,0,131.32,0h-9V29.59h10.88V16.44l2.84,4.7a3,3,0,0,0,5.2,0l2.83-4.7V29.59H155V0Z"/><path d="M172,29.59v-17a.65.65,0,0,1,1.3,0v17h14.3L177.83,0h-8.5a3,3,0,0,0-2.87,2.05L157.69,27.5v2.09Z"/><path d="M217.5,14.79c0-4.15-1.18-8.64-3.55-11.1S207.79,0,202.55,0s-9.05,1.23-11.41,3.69-3.55,7-3.55,11.1,1.19,8.64,3.55,11.1,6.16,3.69,11.41,3.7l1.54,2.68h6.07a2.68,2.68,0,0,0,2.33-4l-.47-.82A9.45,9.45,0,0,0,214,25.89C216.32,23.43,217.5,19,217.5,14.79ZM203.2,21a.65.65,0,1,1-1.3,0V8.6a.65.65,0,1,1,1.3,0Z"/></g></g></svg>