<svg xmlns="http://www.w3.org/2000/svg" viewBox="0 0 38.5 38.5"><defs><style>.cls-1{fill:#fff;fill-rule:evenodd;}</style></defs><title>whatsapp</title><g id="Capa_2" data-name="Capa 2"><g id="Capa_1-2" data-name="Capa 1"><path class="cls-1" d="M19.25,0A19.25,19.25,0,0,0,3.07,29.68L.15,36.12A1.7,1.7,0,0,0,.4,37.91a1.73,1.73,0,0,0,1.28.59,1.74,1.74,0,0,0,.45-.06l8.05-2.22A19.25,19.25,0,1,0,19.25,0Zm0,35.13a15.82,15.82,0,0,1-8-2.16,1.69,1.69,0,0,0-.85-.23,1.61,1.61,0,0,0-.44.06L4.69,34.24l1.84-4a1.69,1.69,0,0,0-.17-1.68,15.88,15.88,0,1,1,12.89,6.6Z"/><path class="cls-1" d="M26.65,22.13a3.31,3.31,0,0,0-2.81-.63c-.73.3-1.19,1.44-1.66,2a.7.7,0,0,1-.91.19,12.66,12.66,0,0,1-6.34-5.43.78.78,0,0,1,.1-1.06,4.15,4.15,0,0,0,1.15-1.87,4,4,0,0,0-.51-2.21A5.24,5.24,0,0,0,14,10.68,2.25,2.25,0,0,0,11.6,11,5,5,0,0,0,9.89,15a5.69,5.69,0,0,0,.16,1.24,10,10,0,0,0,1.19,2.74,19.83,19.83,0,0,0,1.24,1.89,19.08,19.08,0,0,0,5.39,5,16.7,16.7,0,0,0,3.36,1.6,7.52,7.52,0,0,0,3.91.61,4.72,4.72,0,0,0,3.55-2.64,2.29,2.29,0,0,0,.17-1.34C28.65,23.13,27.4,22.58,26.65,22.13Z"/></g></g></svg>